<svg xmlns:dc="http://purl.org/dc/elements/1.1/" xmlns:cc="http://creativecommons.org/ns#" xmlns:rdf="http://www.w3.org/1999/02/22-rdf-syntax-ns#" xmlns:svg="http://www.w3.org/2000/svg" xmlns="http://www.w3.org/2000/svg" xmlns:sodipodi="http://sodipodi.sourceforge.net/DTD/sodipodi-0.dtd" xmlns:inkscape="http://www.inkscape.org/namespaces/inkscape" width="100" height="100" id="svg2" version="1.1" inkscape:version="0.48.4 r9939" sodipodi:docname="New document 1">
  <defs id="defs4"/>
  <sodipodi:namedview id="base" pagecolor="#ffffff" bordercolor="#666666" borderopacity="1.0" inkscape:pageopacity="0.0" inkscape:pageshadow="2" inkscape:zoom="8.39" inkscape:cx="50" inkscape:cy="50" inkscape:document-units="px" inkscape:current-layer="layer1" showgrid="true" inkscape:snap-global="false" inkscape:window-width="1680" inkscape:window-height="1023" inkscape:window-x="-9" inkscape:window-y="-9" inkscape:window-maximized="1">
    <inkscape:grid type="xygrid" id="grid2990" empspacing="5" visible="true" enabled="true" snapvisiblegridlinesonly="true"/>
  </sodipodi:namedview>
  <metadata id="metadata7">
    <rdf:RDF>
      <cc:Work rdf:about="">
        <dc:format>image/svg+xml</dc:format>
        <dc:type rdf:resource="http://purl.org/dc/dcmitype/StillImage"/>
        <dc:title/>
      </cc:Work>
    </rdf:RDF>
  </metadata>
  <g inkscape:label="Layer 1" inkscape:groupmode="layer" id="layer1" transform="translate(0,-952.36218)">
    <path sodipodi:type="arc" style="fill:#ffffff;fill-opacity:1;stroke:#000000;stroke-width:2;stroke-linecap:butt;stroke-linejoin:miter;stroke-miterlimit:4;stroke-opacity:1;stroke-dasharray:none" id="path2985" sodipodi:cx="5.6019073" sodipodi:cy="8.8200235" sodipodi:rx="4.7675805" sodipodi:ry="4.7675805" d="m 10.369488,8.8200235 a 4.7675805,4.7675805 0 1 1 -9.53516126,0 4.7675805,4.7675805 0 1 1 9.53516126,0 z" transform="matrix(1.1963216,0,0,1.1963216,5.1314525,961.66995)"/>
    <path sodipodi:type="arc" style="fill:#000000;fill-opacity:1;stroke:#000000;stroke-width:2;stroke-linecap:butt;stroke-linejoin:miter;stroke-miterlimit:4;stroke-opacity:1;stroke-dasharray:none" id="path2985-5" sodipodi:cx="5.6019073" sodipodi:cy="8.8200235" sodipodi:rx="4.7675805" sodipodi:ry="4.7675805" d="m 10.369488,8.8200235 a 4.7675805,4.7675805 0 1 1 -9.53516126,0 4.7675805,4.7675805 0 1 1 9.53516126,0 z" transform="matrix(1.1963216,0,0,1.1963216,20.208925,961.72955)"/>
    <path sodipodi:type="arc" style="fill:#ffffff;fill-opacity:1;stroke:#000000;stroke-width:2;stroke-linecap:butt;stroke-linejoin:miter;stroke-miterlimit:4;stroke-opacity:1;stroke-dasharray:none" id="path2985-51" sodipodi:cx="5.6019073" sodipodi:cy="8.8200235" sodipodi:rx="4.7675805" sodipodi:ry="4.7675805" d="m 10.369488,8.8200235 a 4.7675805,4.7675805 0 1 1 -9.53516126,0 4.7675805,4.7675805 0 1 1 9.53516126,0 z" transform="matrix(1.1963216,0,0,1.1963216,34.958628,961.69975)"/>
    <path sodipodi:type="arc" style="fill:#ffffff;fill-opacity:1;stroke:#000000;stroke-width:2;stroke-linecap:butt;stroke-linejoin:miter;stroke-miterlimit:4;stroke-opacity:1;stroke-dasharray:none" id="path2985-5-7" sodipodi:cx="5.6019073" sodipodi:cy="8.8200235" sodipodi:rx="4.7675805" sodipodi:ry="4.7675805" d="m 10.369488,8.8200235 a 4.7675805,4.7675805 0 1 1 -9.53516126,0 4.7675805,4.7675805 0 1 1 9.53516126,0 z" transform="matrix(1.1963216,0,0,1.1963216,50.0361,961.75935)"/>
    <path sodipodi:type="arc" style="fill:#ffffff;fill-opacity:1;stroke:#000000;stroke-width:2;stroke-linecap:butt;stroke-linejoin:miter;stroke-miterlimit:4;stroke-opacity:1;stroke-dasharray:none" id="path2985-1" sodipodi:cx="5.6019073" sodipodi:cy="8.8200235" sodipodi:rx="4.7675805" sodipodi:ry="4.7675805" d="m 10.369488,8.8200235 a 4.7675805,4.7675805 0 1 1 -9.53516126,0 4.7675805,4.7675805 0 1 1 9.53516126,0 z" transform="matrix(1.1963216,0,0,1.1963216,65.113574,961.81893)"/>
    <path sodipodi:type="arc" style="fill:#000000;fill-opacity:1;stroke:#000000;stroke-width:2;stroke-linecap:butt;stroke-linejoin:miter;stroke-miterlimit:4;stroke-opacity:1;stroke-dasharray:none" id="path2985-5-1" sodipodi:cx="5.6019073" sodipodi:cy="8.8200235" sodipodi:rx="4.7675805" sodipodi:ry="4.7675805" d="m 10.369488,8.8200235 a 4.7675805,4.7675805 0 1 1 -9.53516126,0 4.7675805,4.7675805 0 1 1 9.53516126,0 z" transform="matrix(1.1963216,0,0,1.1963216,80.191046,961.87853)"/>
    <path sodipodi:type="arc" style="fill:#ffffff;fill-opacity:1;stroke:#000000;stroke-width:2;stroke-linecap:butt;stroke-linejoin:miter;stroke-miterlimit:4;stroke-opacity:1;stroke-dasharray:none" id="path2985-52" sodipodi:cx="5.6019073" sodipodi:cy="8.8200235" sodipodi:rx="4.7675805" sodipodi:ry="4.7675805" d="m 10.369488,8.8200235 a 4.7675805,4.7675805 0 1 1 -9.53516126,0 4.7675805,4.7675805 0 1 1 9.53516126,0 z" transform="matrix(1.1963216,0,0,1.1963216,12.357317,976.28556)"/>
    <path sodipodi:type="arc" style="fill:#ffffff;fill-opacity:1;stroke:#000000;stroke-width:2;stroke-linecap:butt;stroke-linejoin:miter;stroke-miterlimit:4;stroke-opacity:1;stroke-dasharray:none" id="path2985-5-76" sodipodi:cx="5.6019073" sodipodi:cy="8.8200235" sodipodi:rx="4.7675805" sodipodi:ry="4.7675805" d="m 10.369488,8.8200235 a 4.7675805,4.7675805 0 1 1 -9.53516126,0 4.7675805,4.7675805 0 1 1 9.53516126,0 z" transform="matrix(1.1963216,0,0,1.1963216,27.434789,976.34516)"/>
    <path sodipodi:type="arc" style="fill:#ffffff;fill-opacity:1;stroke:#000000;stroke-width:2;stroke-linecap:butt;stroke-linejoin:miter;stroke-miterlimit:4;stroke-opacity:1;stroke-dasharray:none" id="path2985-51-1" sodipodi:cx="5.6019073" sodipodi:cy="8.8200235" sodipodi:rx="4.7675805" sodipodi:ry="4.7675805" d="m 10.369488,8.8200235 a 4.7675805,4.7675805 0 1 1 -9.53516126,0 4.7675805,4.7675805 0 1 1 9.53516126,0 z" transform="matrix(1.1963216,0,0,1.1963216,42.184492,976.31536)"/>
    <path sodipodi:type="arc" style="fill:#000000;fill-opacity:1;stroke:#000000;stroke-width:2;stroke-linecap:butt;stroke-linejoin:miter;stroke-miterlimit:4;stroke-opacity:1;stroke-dasharray:none" id="path2985-5-7-4" sodipodi:cx="5.6019073" sodipodi:cy="8.8200235" sodipodi:rx="4.7675805" sodipodi:ry="4.7675805" d="m 10.369488,8.8200235 a 4.7675805,4.7675805 0 1 1 -9.53516126,0 4.7675805,4.7675805 0 1 1 9.53516126,0 z" transform="matrix(1.1963216,0,0,1.1963216,57.261964,976.37496)"/>
    <path sodipodi:type="arc" style="fill:#ffffff;fill-opacity:1;stroke:#000000;stroke-width:2;stroke-linecap:butt;stroke-linejoin:miter;stroke-miterlimit:4;stroke-opacity:1;stroke-dasharray:none" id="path2985-1-2" sodipodi:cx="5.6019073" sodipodi:cy="8.8200235" sodipodi:rx="4.7675805" sodipodi:ry="4.7675805" d="m 10.369488,8.8200235 a 4.7675805,4.7675805 0 1 1 -9.53516126,0 4.7675805,4.7675805 0 1 1 9.53516126,0 z" transform="matrix(1.1963216,0,0,1.1963216,72.339438,976.43454)"/>
    <path sodipodi:type="arc" style="fill:#ffffff;fill-opacity:1;stroke:#000000;stroke-width:2;stroke-linecap:butt;stroke-linejoin:miter;stroke-miterlimit:4;stroke-opacity:1;stroke-dasharray:none" id="path2985-2" sodipodi:cx="5.6019073" sodipodi:cy="8.8200235" sodipodi:rx="4.7675805" sodipodi:ry="4.7675805" d="m 10.369488,8.8200235 a 4.7675805,4.7675805 0 1 1 -9.53516126,0 4.7675805,4.7675805 0 1 1 9.53516126,0 z" transform="matrix(1.1963216,0,0,1.1963216,5.3513577,991.77276)"/>
    <path sodipodi:type="arc" style="fill:#000000;fill-opacity:1;stroke:#000000;stroke-width:2;stroke-linecap:butt;stroke-linejoin:miter;stroke-miterlimit:4;stroke-opacity:1;stroke-dasharray:none" id="path2985-5-2" sodipodi:cx="5.6019073" sodipodi:cy="8.8200235" sodipodi:rx="4.7675805" sodipodi:ry="4.7675805" d="m 10.369488,8.8200235 a 4.7675805,4.7675805 0 1 1 -9.53516126,0 4.7675805,4.7675805 0 1 1 9.53516126,0 z" transform="matrix(1.1963216,0,0,1.1963216,20.42883,991.83236)"/>
    <path sodipodi:type="arc" style="fill:#ffffff;fill-opacity:1;stroke:#000000;stroke-width:2;stroke-linecap:butt;stroke-linejoin:miter;stroke-miterlimit:4;stroke-opacity:1;stroke-dasharray:none" id="path2985-51-16" sodipodi:cx="5.6019073" sodipodi:cy="8.8200235" sodipodi:rx="4.7675805" sodipodi:ry="4.7675805" d="m 10.369488,8.8200235 a 4.7675805,4.7675805 0 1 1 -9.53516126,0 4.7675805,4.7675805 0 1 1 9.53516126,0 z" transform="matrix(1.1963216,0,0,1.1963216,35.178533,991.80256)"/>
    <path sodipodi:type="arc" style="fill:#000000;fill-opacity:1;stroke:#000000;stroke-width:2;stroke-linecap:butt;stroke-linejoin:miter;stroke-miterlimit:4;stroke-opacity:1;stroke-dasharray:none" id="path2985-5-7-8" sodipodi:cx="5.6019073" sodipodi:cy="8.8200235" sodipodi:rx="4.7675805" sodipodi:ry="4.7675805" d="m 10.369488,8.8200235 a 4.7675805,4.7675805 0 1 1 -9.53516126,0 4.7675805,4.7675805 0 1 1 9.53516126,0 z" transform="matrix(1.1963216,0,0,1.1963216,50.256005,991.86216)"/>
    <path sodipodi:type="arc" style="fill:#ffffff;fill-opacity:1;stroke:#000000;stroke-width:2;stroke-linecap:butt;stroke-linejoin:miter;stroke-miterlimit:4;stroke-opacity:1;stroke-dasharray:none" id="path2985-1-5" sodipodi:cx="5.6019073" sodipodi:cy="8.8200235" sodipodi:rx="4.7675805" sodipodi:ry="4.7675805" d="m 10.369488,8.8200235 a 4.7675805,4.7675805 0 1 1 -9.53516126,0 4.7675805,4.7675805 0 1 1 9.53516126,0 z" transform="matrix(1.1963216,0,0,1.1963216,65.333479,991.92174)"/>
    <path sodipodi:type="arc" style="fill:#ffffff;fill-opacity:1;stroke:#000000;stroke-width:2;stroke-linecap:butt;stroke-linejoin:miter;stroke-miterlimit:4;stroke-opacity:1;stroke-dasharray:none" id="path2985-5-1-7" sodipodi:cx="5.6019073" sodipodi:cy="8.8200235" sodipodi:rx="4.7675805" sodipodi:ry="4.7675805" d="m 10.369488,8.8200235 a 4.7675805,4.7675805 0 1 1 -9.53516126,0 4.7675805,4.7675805 0 1 1 9.53516126,0 z" transform="matrix(1.1963216,0,0,1.1963216,80.410951,991.98134)"/>
    <path sodipodi:type="arc" style="fill:#ffffff;fill-opacity:1;stroke:#000000;stroke-width:2;stroke-linecap:butt;stroke-linejoin:miter;stroke-miterlimit:4;stroke-opacity:1;stroke-dasharray:none" id="path2985-52-6" sodipodi:cx="5.6019073" sodipodi:cy="8.8200235" sodipodi:rx="4.7675805" sodipodi:ry="4.7675805" d="m 10.369488,8.8200235 a 4.7675805,4.7675805 0 1 1 -9.53516126,0 4.7675805,4.7675805 0 1 1 9.53516126,0 z" transform="matrix(1.1963216,0,0,1.1963216,12.577222,1006.3884)"/>
    <path sodipodi:type="arc" style="fill:#000000;fill-opacity:1;stroke:#000000;stroke-width:2;stroke-linecap:butt;stroke-linejoin:miter;stroke-miterlimit:4;stroke-opacity:1;stroke-dasharray:none" id="path2985-5-76-1" sodipodi:cx="5.6019073" sodipodi:cy="8.8200235" sodipodi:rx="4.7675805" sodipodi:ry="4.7675805" d="m 10.369488,8.8200235 a 4.7675805,4.7675805 0 1 1 -9.53516126,0 4.7675805,4.7675805 0 1 1 9.53516126,0 z" transform="matrix(1.1963216,0,0,1.1963216,27.654694,1006.448)"/>
    <path sodipodi:type="arc" style="fill:#000000;fill-opacity:1;stroke:#000000;stroke-width:2;stroke-linecap:butt;stroke-linejoin:miter;stroke-miterlimit:4;stroke-opacity:1;stroke-dasharray:none" id="path2985-51-1-8" sodipodi:cx="5.6019073" sodipodi:cy="8.8200235" sodipodi:rx="4.7675805" sodipodi:ry="4.7675805" d="m 10.369488,8.8200235 a 4.7675805,4.7675805 0 1 1 -9.53516126,0 4.7675805,4.7675805 0 1 1 9.53516126,0 z" transform="matrix(1.1963216,0,0,1.1963216,42.404397,1006.4182)"/>
    <path sodipodi:type="arc" style="fill:#ffffff;fill-opacity:1;stroke:#000000;stroke-width:2;stroke-linecap:butt;stroke-linejoin:miter;stroke-miterlimit:4;stroke-opacity:1;stroke-dasharray:none" id="path2985-5-7-4-9" sodipodi:cx="5.6019073" sodipodi:cy="8.8200235" sodipodi:rx="4.7675805" sodipodi:ry="4.7675805" d="m 10.369488,8.8200235 a 4.7675805,4.7675805 0 1 1 -9.53516126,0 4.7675805,4.7675805 0 1 1 9.53516126,0 z" transform="matrix(1.1963216,0,0,1.1963216,57.481869,1006.4778)"/>
    <path sodipodi:type="arc" style="fill:#ffffff;fill-opacity:1;stroke:#000000;stroke-width:2;stroke-linecap:butt;stroke-linejoin:miter;stroke-miterlimit:4;stroke-opacity:1;stroke-dasharray:none" id="path2985-1-2-2" sodipodi:cx="5.6019073" sodipodi:cy="8.8200235" sodipodi:rx="4.7675805" sodipodi:ry="4.7675805" d="m 10.369488,8.8200235 a 4.7675805,4.7675805 0 1 1 -9.53516126,0 4.7675805,4.7675805 0 1 1 9.53516126,0 z" transform="matrix(1.1963216,0,0,1.1963216,72.559343,1006.5374)"/>
    <path sodipodi:type="arc" style="fill:#ffffff;fill-opacity:1;stroke:#000000;stroke-width:2;stroke-linecap:butt;stroke-linejoin:miter;stroke-miterlimit:4;stroke-opacity:1;stroke-dasharray:none" id="path2985-2-7" sodipodi:cx="5.6019073" sodipodi:cy="8.8200235" sodipodi:rx="4.7675805" sodipodi:ry="4.7675805" d="m 10.369488,8.8200235 a 4.7675805,4.7675805 0 1 1 -9.53516126,0 4.7675805,4.7675805 0 1 1 9.53516126,0 z" transform="matrix(1.1963216,0,0,1.1963216,5.2321678,1021.6893)"/>
    <path sodipodi:type="arc" style="fill:#ffffff;fill-opacity:1;stroke:#000000;stroke-width:2;stroke-linecap:butt;stroke-linejoin:miter;stroke-miterlimit:4;stroke-opacity:1;stroke-dasharray:none" id="path2985-5-2-9" sodipodi:cx="5.6019073" sodipodi:cy="8.8200235" sodipodi:rx="4.7675805" sodipodi:ry="4.7675805" d="m 10.369488,8.8200235 a 4.7675805,4.7675805 0 1 1 -9.53516126,0 4.7675805,4.7675805 0 1 1 9.53516126,0 z" transform="matrix(1.1963216,0,0,1.1963216,20.30964,1021.7489)"/>
    <path sodipodi:type="arc" style="fill:#ffffff;fill-opacity:1;stroke:#000000;stroke-width:2;stroke-linecap:butt;stroke-linejoin:miter;stroke-miterlimit:4;stroke-opacity:1;stroke-dasharray:none" id="path2985-51-16-5" sodipodi:cx="5.6019073" sodipodi:cy="8.8200235" sodipodi:rx="4.7675805" sodipodi:ry="4.7675805" d="m 10.369488,8.8200235 a 4.7675805,4.7675805 0 1 1 -9.53516126,0 4.7675805,4.7675805 0 1 1 9.53516126,0 z" transform="matrix(1.1963216,0,0,1.1963216,35.059343,1021.7191)"/>
    <path sodipodi:type="arc" style="fill:#ffffff;fill-opacity:1;stroke:#000000;stroke-width:2;stroke-linecap:butt;stroke-linejoin:miter;stroke-miterlimit:4;stroke-opacity:1;stroke-dasharray:none" id="path2985-5-7-8-4" sodipodi:cx="5.6019073" sodipodi:cy="8.8200235" sodipodi:rx="4.7675805" sodipodi:ry="4.7675805" d="m 10.369488,8.8200235 a 4.7675805,4.7675805 0 1 1 -9.53516126,0 4.7675805,4.7675805 0 1 1 9.53516126,0 z" transform="matrix(1.1963216,0,0,1.1963216,50.136815,1021.7787)"/>
    <path sodipodi:type="arc" style="fill:#000000;fill-opacity:1;stroke:#000000;stroke-width:2;stroke-linecap:butt;stroke-linejoin:miter;stroke-miterlimit:4;stroke-opacity:1;stroke-dasharray:none" id="path2985-1-5-3" sodipodi:cx="5.6019073" sodipodi:cy="8.8200235" sodipodi:rx="4.7675805" sodipodi:ry="4.7675805" d="m 10.369488,8.8200235 a 4.7675805,4.7675805 0 1 1 -9.53516126,0 4.7675805,4.7675805 0 1 1 9.53516126,0 z" transform="matrix(1.1963216,0,0,1.1963216,65.214289,1021.8383)"/>
    <path sodipodi:type="arc" style="fill:#ffffff;fill-opacity:1;stroke:#000000;stroke-width:2;stroke-linecap:butt;stroke-linejoin:miter;stroke-miterlimit:4;stroke-opacity:1;stroke-dasharray:none" id="path2985-5-1-7-1" sodipodi:cx="5.6019073" sodipodi:cy="8.8200235" sodipodi:rx="4.7675805" sodipodi:ry="4.7675805" d="m 10.369488,8.8200235 a 4.7675805,4.7675805 0 1 1 -9.53516126,0 4.7675805,4.7675805 0 1 1 9.53516126,0 z" transform="matrix(1.1963216,0,0,1.1963216,80.291761,1021.8979)"/>
    <path style="font-size:medium;font-style:normal;font-variant:normal;font-weight:normal;font-stretch:normal;text-indent:0;text-align:start;text-decoration:none;line-height:normal;letter-spacing:normal;word-spacing:normal;text-transform:none;direction:ltr;block-progression:tb;writing-mode:lr-tb;text-anchor:start;baseline-shift:baseline;color:#000000;fill:#000000;fill-opacity:1;stroke:none;stroke-width:2;marker:none;visibility:visible;display:inline;overflow:visible;enable-background:accumulate;font-family:Sans;-inkscape-font-specification:Sans" d="m 2.0625,961.14343 a 1.0001,1.0001 0 0 0 -0.8125,1 l 0,81.87497 a 1.0001,1.0001 0 0 0 1,1 l 95,0 a 1.0001,1.0001 0 0 0 1,-1 l 0,-81.87497 a 1.0001,1.0001 0 0 0 -1,-1 l -95,0 a 1.0001,1.0001 0 0 0 -0.1875,0 z m 1.1875,2 93,0 0,79.87497 -93,0 0,-79.87497 z" id="rect3181" inkscape:connector-curvature="0"/>
    <path style="font-size:medium;font-style:normal;font-variant:normal;font-weight:normal;font-stretch:normal;text-indent:0;text-align:start;text-decoration:none;line-height:normal;letter-spacing:normal;word-spacing:normal;text-transform:none;direction:ltr;block-progression:tb;writing-mode:lr-tb;text-anchor:start;baseline-shift:baseline;color:#000000;fill:#000000;fill-opacity:1;fill-rule:nonzero;stroke:none;stroke-width:2;marker:none;visibility:visible;display:inline;overflow:visible;enable-background:accumulate;font-family:Sans;-inkscape-font-specification:Sans" d="m 9.90625,1044.0809 a 1.0001,1.0001 0 0 0 -1,1 l 0,1.8125 a 1.0001,1.0001 0 0 0 1,1 l 19.0625,0 a 1.0001,1.0001 0 0 0 1,-1 l 0,-1.8125 a 1.0001,1.0001 0 0 0 -1,-1 l -19.0625,0 z" id="rect3951" inkscape:connector-curvature="0"/>
    <path style="font-size:medium;font-style:normal;font-variant:normal;font-weight:normal;font-stretch:normal;text-indent:0;text-align:start;text-decoration:none;line-height:normal;letter-spacing:normal;word-spacing:normal;text-transform:none;direction:ltr;block-progression:tb;writing-mode:lr-tb;text-anchor:start;baseline-shift:baseline;color:#000000;fill:#000000;fill-opacity:1;fill-rule:nonzero;stroke:none;stroke-width:2;marker:none;visibility:visible;display:inline;overflow:visible;enable-background:accumulate;font-family:Sans;-inkscape-font-specification:Sans" d="m 70.25,1044.1562 a 1.0001,1.0001 0 0 0 -0.8125,1 l 0,1.7813 a 1.0001,1.0001 0 0 0 1,1 l 19.0625,0 a 1.0001,1.0001 0 0 0 1,-1 l 0,-1.7813 a 1.0001,1.0001 0 0 0 -1,-1 l -19.0625,0 a 1.0001,1.0001 0 0 0 -0.1875,0 z" id="rect3951-1" inkscape:connector-curvature="0"/>
  </g>
</svg>